<?xml version="1.0" encoding="utf-8"?>
<!-- Generator: Adobe Illustrator 18.1.1, SVG Export Plug-In . SVG Version: 6.00 Build 0)  -->
<svg version="1.1" id="レイヤー_1" xmlns="http://www.w3.org/2000/svg" xmlns:xlink="http://www.w3.org/1999/xlink" x="0px"
	 y="0px" viewBox="0 0 739 453" enable-background="new 0 0 739 453" xml:space="preserve">
<rect x="4.4" y="125.7" fill="#E5F0F6" width="730.2" height="203.3"/>
<path fill="none" stroke="#1A2F5D" stroke-width="0.9061" stroke-miterlimit="10" d="M0.5,450.6c0,1.1,0.9,1.9,1.9,1.9l730.2,0
	c1.1,0,1.9-0.9,1.9-1.9c0-1.1,0.9-1.9,1.9-1.9h0c1.1,0,1.9-0.9,1.9-1.9V2.4c0-1.1-0.9-1.9-1.9-1.9H6.3c-1.1,0-1.9,0.9-1.9,1.9
	c0,1.1-0.9,1.9-1.9,1.9h0c-1.1,0-1.9,0.9-1.9,1.9L0.5,450.6z"/>
<path fill="none" stroke="#1A2F5D" stroke-width="0.9061" stroke-miterlimit="10" d="M4.4,6.3c0-1.1,0.9-1.9,1.9-1.9h726.4
	c1.1,0,1.9,0.9,1.9,1.9v440.5c0,1.1-0.9,1.9-1.9,1.9l-726.4,0c-1.1,0-1.9-0.9-1.9-1.9L4.4,6.3z"/>
</svg>
