<?xml version="1.0" encoding="utf-8"?>
<!-- Generator: Adobe Illustrator 23.0.0, SVG Export Plug-In . SVG Version: 6.00 Build 0)  -->
<svg version="1.1" id="レイヤー_1" xmlns="http://www.w3.org/2000/svg" xmlns:xlink="http://www.w3.org/1999/xlink" x="0px"
	 y="0px" viewBox="0 0 826 581" style="enable-background:new 0 0 826 581;" xml:space="preserve">
<style type="text/css">
	.st0{fill:none;stroke:#1A2F5C;stroke-miterlimit:10;}
</style>
<g>
	<path class="st0" d="M824.51,573.26V3.49c0-1.17-0.95-2.13-2.13-2.13H7.91c-1.17,0-2.13,0.95-2.13,2.13v0
		c0,1.17-0.95,2.13-2.13,2.13H3.61c-1.17,0-2.13,0.95-2.13,2.13v569.76c0,1.17,0.95,2.13,2.13,2.13l814.48,0
		c1.17,0,2.13-0.95,2.13-2.13v0c0-1.17,0.95-2.13,2.13-2.13h0.04C823.56,575.38,824.51,574.43,824.51,573.26z"/>
	<path class="st0" d="M818.09,575.38H7.91c-1.17,0-2.13-0.95-2.13-2.13V7.74c0-1.17,0.95-2.13,2.13-2.13h810.19
		c1.17,0,2.13,0.95,2.13,2.13v565.51C820.22,574.43,819.27,575.38,818.09,575.38z"/>
</g>
</svg>
