<?xml version="1.0" encoding="utf-8"?>
<!-- Generator: Adobe Illustrator 23.0.0, SVG Export Plug-In . SVG Version: 6.00 Build 0)  -->
<svg version="1.1" id="レイヤー_1" xmlns="http://www.w3.org/2000/svg" xmlns:xlink="http://www.w3.org/1999/xlink" x="0px"
	 y="0px" viewBox="0 0 133 101" style="enable-background:new 0 0 133 101;" xml:space="preserve">
<style type="text/css">
	.st0{fill:#060001;}
	.st1{fill:#192A4F;}
	.st2{fill:#19284D;}
</style>
<g>
	<g>
		<path class="st0" d="M0.57,18.27c2.31-4.69,4.19-10.4,5.41-16.8c3.89,0.96,4.55,1.29,4.55,1.78c0,0.46-0.3,0.66-1.42,0.96
			C8.42,6.32,7.5,8.53,6.34,10.68c1.55,0.4,1.98,0.63,1.98,0.96c0,0.4-0.26,0.56-1.09,0.96v3.14c0,9.77,0.13,13.56,0.13,14.79
			c0,0.89-1.02,1.49-2.54,1.49c-0.69,0-1.06-0.33-1.06-0.86C3.77,29.82,4,25.86,4,15.63v-1.06c-0.92,1.35-1.91,2.71-3,3.96
			L0.57,18.27z M12.55,11.74c0,10.99,0.17,13.53,0.17,14.19c0,0.79-1.02,1.39-2.57,1.39c-0.59,0-0.92-0.3-0.92-0.76
			c0-1.16,0.17-4.22,0.17-14.89c0-2.15-0.03-3.5-0.1-4.72c4.19,0.53,4.52,0.76,4.52,1.16c0,0.33-0.23,0.66-1.25,1.02V11.74z
			 M10.57,31.87c6.8-1.52,13.66-5.21,17.89-10.23c3.04,1.75,3.3,2.05,3.3,2.44c0,0.3-0.26,0.5-1.32,0.5
			c-4.75,4.85-12.54,7.43-19.67,7.76L10.57,31.87z M12.12,27.48c4.69-1.72,9.18-4.69,12.51-8.55c2.84,1.45,3.17,1.68,3.17,2.08
			c0,0.3-0.3,0.46-1.22,0.59c-3.47,3.3-9.08,5.64-14.26,6.34L12.12,27.48z M13.04,17.97c2.94-1.49,5.48-3.33,7.59-5.54
			c-0.92-1.22-1.72-2.61-2.24-4.06c-1.39,1.88-3.07,3.6-5.02,5.05l-0.36-0.33c2.51-3.63,4.06-7.46,5.08-11.75
			c3.93,1.06,4.26,1.25,4.26,1.62c0,0.3-0.23,0.56-1.29,0.69c-0.3,0.73-0.66,1.42-1.02,2.11h6.27c0.66-0.83,1.45-1.82,2.24-2.67
			c3.14,2.54,3.43,2.9,3.43,3.2c0,0.23-0.2,0.4-0.53,0.4h-2.31c-0.07,0.36-0.33,0.69-0.92,0.79c-1.02,1.91-2.34,3.56-3.83,4.98
			c2.21,1.19,4.88,2.01,7.89,2.38l-0.07,0.5c-0.99,0.36-1.82,1.29-2.31,2.24c-0.23,0.56-0.4,0.76-0.69,0.76
			c-0.13,0-0.33-0.03-0.59-0.13c-2.54-0.92-4.69-2.28-6.37-3.96c-2.64,1.91-5.68,3.27-8.98,4.16L13.04,17.97z M13.14,22.73
			c3.07-1.68,5.71-3.76,8.09-6.73c2.94,1.49,3.2,1.72,3.2,2.11s-0.33,0.53-1.42,0.53c-2.54,2.28-6.11,3.8-9.67,4.55L13.14,22.73z
			 M19.51,6.69c-0.2,0.3-0.4,0.63-0.59,0.92c0.79,1.25,1.85,2.38,3.04,3.3c1.06-1.32,1.91-2.74,2.64-4.22H19.51z"/>
		<path class="st0" d="M65.05,17.08c0-2.57-0.1-4.42-0.2-5.81c1.22,0.17,2.18,0.33,2.9,0.46c2.44-1.78,4.79-3.83,6.83-6.07H55.78
			l-3.3,0.17V4.57l3.3,0.17h19.04c0.96-1.52,1.32-1.78,1.81-1.78c0.46,0,0.96,0.17,2.41,1.29c1.22,0.96,1.48,1.39,1.48,1.91
			c0,0.43-0.5,0.79-2.21,0.99c-2.61,1.85-6.01,3.7-9.01,4.92c0.63,0.2,0.79,0.36,0.79,0.59c0,0.46-0.36,0.69-1.35,1.09v3.33
			c0,6.83,0.26,9.21,0.26,11.12c0,1.91-1.91,3.4-4.79,3.4c-0.59,0-0.66-0.07-0.83-0.66c-0.4-1.55-1.35-2.34-3.63-3.1l0.03-0.5
			c1.22,0.17,2.74,0.26,3.86,0.26c1.16,0,1.39-0.17,1.39-1.39V17.08z"/>
		<path class="st0" d="M109.96,7.91c0.59-0.73,1.22-1.42,2.05-2.28c3.2,2.34,3.3,2.54,3.3,2.84c0,0.2-0.2,0.36-0.53,0.36h-11.19
			L101.08,9V7.74l2.51,0.17H109.96z M109.14,20.81c0.56-1.25,0.99-1.68,1.35-1.68c0.43,0,0.92,0.16,1.98,0.99s1.22,1.12,1.22,1.42
			c0,0.4-0.23,0.69-1.06,1.09v1.25c0,2.51,0.13,4.16,0.13,4.92c0,0.82-0.92,1.42-2.44,1.42c-0.69,0-0.99-0.23-0.99-0.89v-1.09h-3.86
			v2.01c0,0.66-0.86,1.32-2.54,1.32c-0.56,0-0.86-0.26-0.86-0.82c0-0.4,0.1-2.11,0.1-6.93c0-2.15-0.03-3.3-0.1-4.55
			c2.48,0.86,3.53,1.25,3.93,1.55H109.14z M108.44,3.81c0.59-0.73,1.19-1.35,1.98-2.15c2.87,2.18,3.04,2.44,3.04,2.71
			c0,0.2-0.2,0.36-0.53,0.36h-8.05l-2.51,0.17V3.65l2.51,0.17H108.44z M108.41,11.97c0.59-0.73,1.19-1.35,1.98-2.15
			c2.87,2.18,3.04,2.44,3.04,2.71c0,0.2-0.2,0.36-0.53,0.36h-7.89l-2.51,0.17V11.8l2.51,0.17H108.41z M108.38,16.46
			c0.59-0.73,1.19-1.35,1.98-2.15c2.87,2.18,3.04,2.44,3.04,2.71c0,0.2-0.2,0.36-0.53,0.36h-7.86l-2.51,0.17v-1.25l2.51,0.17H108.38
			z M105.94,21.74l-0.46,0.56v5.02h3.86v-5.58H105.94z M122.04,5.66h-4.13l-3.14,0.17V4.57l3.14,0.17h8.19
			c0.69-0.92,1.45-1.78,2.21-2.64c3.17,2.48,3.37,2.81,3.37,3.14c0,0.23-0.17,0.43-0.53,0.43h-5.08c-0.07,0.36-0.26,0.59-0.53,0.73
			v9.77h0.66c0.59-0.76,1.35-1.68,2.01-2.41c2.81,2.21,3,2.51,3,2.94c0,0.23-0.17,0.4-0.5,0.4h-5.18v11.85h0.63
			c0.69-0.92,1.52-1.91,2.28-2.74c3.2,2.48,3.47,2.84,3.47,3.27c0,0.26-0.23,0.4-0.46,0.4h-15.81l-2.21,0.17v-1.25l2.21,0.17h0.43
			V17.21c0-2.24-0.07-3.83-0.17-5.18c4.16,0.4,4.85,0.66,4.85,1.09c0,0.46-0.3,0.66-1.25,1.06v14.75h2.54V5.66z"/>
	</g>
	<g>
		<path class="st0" d="M18.12,55.12c-1.74,4-4.29,5.92-7.89,5.92c-5.13,0-8.64-3.97-8.64-9.78c0-6.27,4.06-11.49,8.93-11.49
			c0.9,0,1.6,0.17,2.67,0.58c0.32,0.12,0.46,0.17,0.67,0.17c0.23,0,0.23,0,2.41-0.46l1.62,5.54l-1.04,0.44
			c-1.71-3.31-3.83-5.02-6.24-5.02c-3.39,0-5.48,3.25-5.48,8.59c0,5.74,2.38,9.17,6.41,9.17c2.44,0,4.47-1.48,5.63-4.12L18.12,55.12
			z"/>
		<path class="st0" d="M23.31,53.47c0,0.84,0.2,1.89,0.58,3.02c0.58,1.68,2.06,2.67,4,2.67c1.62,0,2.84-0.61,4.32-2.15l0.75,0.61
			c-1.74,2.29-3.74,3.36-6.15,3.36c-3.77,0-6.58-2.87-6.58-6.73c0-4.06,2.99-7.4,6.64-7.4c2.09,0,3.95,1.1,4.96,2.87
			c0.58,1.02,0.96,2.41,0.96,3.42v0.32H23.31z M29.83,52.14v-0.2c0-2.44-1.22-4.03-3.07-4.03c-1.33,0-2.47,0.84-2.99,2.23
			c-0.17,0.46-0.23,0.78-0.38,2H29.83z"/>
		<path class="st0" d="M39.66,50.25c1.51-2.35,2.87-3.39,4.38-3.39c1.02,0,1.77,0.78,1.77,1.8c0,0.99-0.73,1.8-1.6,1.8
			c-0.29,0-0.58-0.09-0.99-0.35c-0.52-0.29-0.78-0.41-1.04-0.41c-0.75,0-1.31,0.46-2.52,1.97v5.66c0,1.97,0.2,2.18,2.09,2.18h0.55
			v1.07h-7.45V59.5h0.15c1.68,0,1.91-0.26,1.91-2.18v-5.69c0-2-0.26-2.32-1.97-2.44v-0.93l4.73-1.48V50.25z"/>
		<path class="st0" d="M51.49,56.2c0,2.35,0.38,3.02,1.71,3.02c0.73,0,1.19-0.23,2.12-1.1l0.73,0.7c-1.07,1.45-2.47,2.18-4.09,2.18
			c-1.25,0-2.32-0.49-2.76-1.28c-0.32-0.64-0.46-1.33-0.46-2.67V48.6h-1.89v-1.04c2.15-0.7,3.02-1.91,3.45-4.79h1.19v4.5h3.66v1.33
			h-3.66V56.2z"/>
		<path class="st0" d="M61.5,57.3c0,1.89,0.17,2.09,1.74,2.2v1.07H56.8V59.5c1.8-0.06,1.94-0.23,1.94-2.2v-5.57
			c0-2.09-0.23-2.41-1.97-2.52v-0.93l4.73-1.48V57.3z M61.76,41.98c0,1.04-0.81,1.91-1.77,1.91c-0.93,0-1.74-0.87-1.74-1.91
			c0-1.02,0.81-1.89,1.77-1.89C60.95,40.1,61.76,40.97,61.76,41.98z"/>
		<path class="st0" d="M66.78,46.42c0-4.26,2.81-6.53,6.7-6.53c2.64,0,4.32,0.99,4.32,2.47c0,0.9-0.58,1.51-1.45,1.51
			c-0.84,0-1.36-0.35-1.62-1.48c-0.23-1.04-0.9-1.36-1.8-1.36c-1.8,0-3.39,1.57-3.39,4.58v1.65h5.95l2.23-0.7V57.3
			c0,1.89,0.17,2.09,1.74,2.2v1.07h-6.24V59.5c1.51-0.03,1.74-0.29,1.74-2.2v-6.18c0-2.03-0.41-2.52-2.06-2.52h-3.36v8.47
			c0,2.12,0.23,2.41,1.74,2.44v1.07H64.6V59.5c2-0.09,2.18-0.32,2.18-2.44V48.6h-2.2v-1.33h2.2V46.42z"/>
		<path class="st0" d="M93.17,57.27c-0.78,1.19-1.13,1.62-1.65,2.18c-0.96,0.96-2.52,1.54-4.06,1.54c-3.51,0-6.06-2.73-6.06-6.5
			c0-4.15,3.13-7.63,6.85-7.63c2.29,0,4.52,1.54,4.52,3.07c0,0.81-0.78,1.6-1.57,1.6c-0.84,0-1.36-0.61-1.68-1.89
			c-0.29-1.16-0.81-1.62-1.89-1.62c-1.91,0-3.16,2-3.16,5.11c0,3.68,1.54,5.98,4.06,5.98c1.6,0,2.44-0.52,3.77-2.44L93.17,57.27z"/>
		<path class="st0" d="M107.58,59.36c-1.07,1.16-1.83,1.62-2.67,1.62c-0.96,0-1.6-0.58-2.06-1.86c-1.65,1.31-2.9,1.86-4.24,1.86
			c-2.15,0-3.74-1.45-3.74-3.42c0-1.74,1.19-3.13,3.54-4.21c0.96-0.44,2.15-0.78,4.32-1.28v-1.57c0-1.86-0.46-2.49-1.83-2.49
			c-1.07,0-1.74,0.55-2.15,1.74c-0.41,1.22-0.93,1.71-1.77,1.71c-0.81,0-1.48-0.7-1.48-1.6c0-1.71,2.35-3.02,5.48-3.02
			c1.97,0,3.45,0.64,4.09,1.74c0.29,0.52,0.38,1.02,0.38,2.2v6c0,1.91,0.09,2.23,0.67,2.23c0.26,0,0.46-0.09,0.81-0.38L107.58,59.36
			z M102.74,53.21c-3.36,0.96-4.79,2.15-4.79,4c0,1.25,0.7,2.09,1.74,2.09c1.16,0,2.15-0.44,3.05-1.36V53.21z"/>
		<path class="st0" d="M113.52,56.2c0,2.35,0.38,3.02,1.71,3.02c0.73,0,1.19-0.23,2.12-1.1l0.73,0.7c-1.07,1.45-2.47,2.18-4.09,2.18
			c-1.25,0-2.32-0.49-2.76-1.28c-0.32-0.64-0.46-1.33-0.46-2.67V48.6h-1.89v-1.04c2.15-0.7,3.02-1.91,3.45-4.79h1.19v4.5h3.66v1.33
			h-3.66V56.2z"/>
		<path class="st0" d="M122.05,53.47c0,0.84,0.2,1.89,0.58,3.02c0.58,1.68,2.06,2.67,4,2.67c1.62,0,2.84-0.61,4.32-2.15l0.75,0.61
			c-1.74,2.29-3.74,3.36-6.15,3.36c-3.77,0-6.58-2.87-6.58-6.73c0-4.06,2.99-7.4,6.64-7.4c2.09,0,3.95,1.1,4.96,2.87
			c0.58,1.02,0.96,2.41,0.96,3.42v0.32H122.05z M128.58,52.14v-0.2c0-2.44-1.22-4.03-3.07-4.03c-1.33,0-2.47,0.84-2.99,2.23
			c-0.17,0.46-0.23,0.78-0.38,2H128.58z"/>
	</g>
</g>
<g>
	<g>
		<path class="st1" d="M56.34,92.68c-0.21-1.12-1.2-1.97-2.38-1.97c-1.34,0-2.43,1.09-2.43,2.43c0,1.34,1.09,2.43,2.43,2.43
			c0.38,0,0.73-0.09,1.05-0.25c-0.25,1.31-0.94,2.35-2.05,3.07c-2.13,1.38-5.45,1.25-8.06-0.25c-0.01-0.01-0.43-0.23-0.81-0.51
			c-0.3-0.22-0.51-0.41-0.77-0.64c-1.47-1.37-2.97-3.79-2.35-7.72c0.06-0.37-0.19-0.71-0.56-0.77c-0.37-0.06-0.71,0.19-0.77,0.56
			c-0.36,2.31-0.06,4.43,0.82,6.24c-1.33-0.72-2.6-1.35-3.48-1.76c-3.98-1.84-7.23-1.76-9.41,0.24c-0.27,0.25-0.29,0.68-0.04,0.95
			c0.25,0.27,0.67,0.29,0.95,0.04c1.77-1.62,4.44-1.62,7.93-0.01c1.38,0.64,4.05,1.98,6.1,3.31c0.44,0.38,0.78,0.67,1.23,0.96
			c1.71,1.11,3.71,1.68,5.61,1.68c1.58,0,3.1-0.39,4.34-1.19c2.18-1.41,3.12-3.83,2.66-6.83C56.34,92.69,56.34,92.69,56.34,92.68z"
			/>
		<path class="st2" d="M33.33,81.21c0.11,0.36,0.27,0.25,0.38,1.36c0.05,0.55,0.43,0.74,0.6,1.11c0.23,0.51,0.16,0.68,0.86,1.33
			c0.7,0.66,0.86,0.44,1.52,0.86c0.22,0.14,0.45,0.6,0.93,0.68c0.53,0.09,0.56,0.25,0.97,0.26c0.33,0.01,0.29-0.19,0.82-0.05
			c0.53,0.14,0.38-0.39,1.28-0.37c0.16,0,0.32-0.2,0.27-0.32c-0.17-0.41,0.2-0.58-0.01-1.05c-0.21-0.47-0.02-0.55-0.1-0.78
			c-0.13-0.36-0.32-0.63-0.69-0.89c-0.37-0.27-0.67-0.4-0.83-0.6c-0.32-0.38,0.01-0.77-0.73-1.38c-0.94-0.78-0.95-0.38-1.53-0.65
			c-0.31-0.14-0.27-0.45-0.99-0.67c-0.79-0.24-1.11-0.15-1.46-0.25c-0.34-0.09-1.01-0.34-1.34-0.58c-0.31-0.22-0.64-0.73-0.82-0.61
			c-0.21,0.14,0.21,0.55,0.45,0.85C33.31,79.92,33,80.13,33.33,81.21z"/>
		<path class="st2" d="M45.43,86.91c-0.42-0.1-0.43-0.23-0.76-0.27c-0.26-0.03-0.24,0.14-0.66-0.01c-0.41-0.15-0.32,0.29-1.04,0.22
			c-0.13-0.01-0.27,0.14-0.24,0.24c0.11,0.33-0.2,0.45-0.06,0.84c0.14,0.39-0.02,0.44,0.03,0.63c0.08,0.3,0.22,0.52,0.49,0.75
			c0.27,0.23,0.51,0.36,0.62,0.53c0.23,0.33-0.05,0.61,0.5,1.14c0.7,0.68,0.73,0.36,1.18,0.61c0.23,0.13,0.19,0.38,0.75,0.59
			c0.62,0.24,0.87,0.19,1.15,0.29c0.27,0.09,0.78,0.33,1.03,0.54c0.24,0.19,0.46,0.62,0.61,0.54c0.18-0.1-0.14-0.45-0.31-0.7
			c-0.27-0.4-0.01-0.55-0.21-1.42c-0.07-0.3-0.2-0.22-0.22-1.11c-0.01-0.44-0.3-0.62-0.41-0.92c-0.15-0.42-0.08-0.55-0.6-1.11
			c-0.52-0.57-0.66-0.4-1.16-0.77C45.96,87.38,45.81,87,45.43,86.91z"/>
		<path class="st2" d="M23.65,88.18c0.08-0.28,0.17-0.29,0.2-0.51c0.02-0.18-0.09-0.17,0.02-0.45c0.11-0.28-0.19-0.23-0.13-0.72
			c0.01-0.09-0.09-0.19-0.16-0.17c-0.23,0.07-0.3-0.14-0.57-0.06c-0.27,0.09-0.3-0.02-0.43,0.01c-0.2,0.05-0.36,0.14-0.52,0.32
			c-0.17,0.18-0.26,0.34-0.37,0.42c-0.23,0.15-0.41-0.05-0.79,0.32c-0.48,0.46-0.26,0.49-0.44,0.79c-0.09,0.16-0.26,0.12-0.42,0.5
			c-0.17,0.42-0.15,0.59-0.22,0.78c-0.07,0.18-0.24,0.53-0.39,0.69c-0.14,0.16-0.43,0.3-0.38,0.41c0.06,0.12,0.31-0.08,0.48-0.2
			c0.28-0.18,0.37,0,0.97-0.12c0.2-0.04,0.15-0.13,0.76-0.13c0.3,0,0.43-0.19,0.64-0.26c0.29-0.1,0.38-0.05,0.77-0.39
			c0.4-0.34,0.29-0.44,0.55-0.77C23.32,88.53,23.58,88.43,23.65,88.18z"/>
		<path class="st2" d="M24.38,83.29c0.08,0.22,0.15,0.22,0.19,0.39c0.03,0.14-0.06,0.14,0.04,0.35c0.1,0.21-0.14,0.19-0.05,0.57
			c0.01,0.07-0.06,0.15-0.11,0.14c-0.18-0.04-0.23,0.13-0.44,0.08c-0.21-0.05-0.23,0.04-0.34,0.02c-0.16-0.02-0.29-0.08-0.43-0.22
			c-0.14-0.13-0.22-0.25-0.32-0.3c-0.19-0.11-0.32,0.06-0.64-0.2c-0.4-0.33-0.24-0.37-0.4-0.59c-0.08-0.12-0.21-0.08-0.36-0.36
			c-0.16-0.31-0.15-0.45-0.22-0.59c-0.07-0.14-0.22-0.4-0.35-0.52c-0.12-0.11-0.36-0.21-0.32-0.29c0.04-0.1,0.25,0.05,0.39,0.12
			c0.23,0.12,0.29-0.03,0.77,0.03c0.16,0.02,0.13,0.09,0.6,0.05c0.24-0.02,0.35,0.12,0.52,0.16c0.23,0.06,0.3,0.01,0.63,0.25
			c0.33,0.24,0.25,0.33,0.48,0.57C24.09,83.03,24.31,83.09,24.38,83.29z"/>
		<path class="st2" d="M7.17,87.52c0.45-0.22,0.44-0.41,0.8-0.52c0.29-0.08,0.3,0.16,0.75-0.12c0.44-0.28,0.43,0.37,1.23,0.15
			c0.14-0.04,0.34,0.16,0.32,0.31c-0.06,0.51,0.32,0.63,0.25,1.22c-0.07,0.59,0.11,0.65,0.1,0.93c-0.03,0.45-0.14,0.8-0.4,1.19
			c-0.26,0.39-0.5,0.62-0.6,0.88c-0.2,0.52,0.19,0.89-0.32,1.76c-0.65,1.12-0.76,0.66-1.21,1.1c-0.24,0.23-0.13,0.59-0.72,1
			c-0.65,0.45-0.95,0.42-1.24,0.61C5.84,96.22,5.31,96.65,5.07,97c-0.23,0.33-0.39,0.99-0.58,0.89c-0.22-0.12,0.06-0.68,0.2-1.08
			c0.22-0.63-0.1-0.81-0.06-2.13c0.01-0.45,0.18-0.35,0.01-1.67c-0.08-0.65,0.21-0.96,0.27-1.43c0.08-0.64-0.02-0.83,0.44-1.74
			c0.47-0.92,0.66-0.7,1.15-1.33C6.67,88.3,6.76,87.72,7.17,87.52z"/>
		<path class="st2" d="M8.76,82.4c0.32,0.15,0.31,0.28,0.57,0.35c0.21,0.05,0.21-0.12,0.52,0.08c0.31,0.19,0.29-0.27,0.86-0.12
			c0.1,0.03,0.23-0.12,0.22-0.22c-0.04-0.36,0.21-0.45,0.16-0.86c-0.06-0.41,0.07-0.45,0.06-0.65c-0.02-0.31-0.11-0.56-0.29-0.83
			c-0.19-0.27-0.36-0.43-0.43-0.61c-0.14-0.36,0.12-0.62-0.25-1.23c-0.47-0.77-0.54-0.45-0.86-0.75c-0.17-0.16-0.1-0.41-0.52-0.69
			c-0.46-0.31-0.67-0.28-0.88-0.41c-0.2-0.12-0.58-0.42-0.75-0.66c-0.16-0.23-0.29-0.69-0.42-0.62c-0.15,0.08,0.05,0.48,0.15,0.76
			c0.16,0.44-0.06,0.57-0.02,1.49c0.02,0.31,0.13,0.25,0.03,1.17c-0.05,0.46,0.16,0.67,0.21,0.99c0.07,0.45-0.01,0.58,0.33,1.21
			c0.34,0.64,0.47,0.48,0.82,0.92C8.4,81.86,8.47,82.27,8.76,82.4z"/>
		<path class="st2" d="M41.14,84.64c0.09,0.27,0.32,0.21,0.48,0.79c0.15,0.58,0.7,0.33,0.63,1.18c-0.01,0.12-0.08,0.52-0.25,0.86
			c-0.25,0.49-0.66,0.89-0.66,0.89l0.16,0.04c0,0,0.37-0.34,0.63-0.8c0.24-0.42,0.36-0.97,0.51-1.09c0.81-0.68,1.29-0.09,1.67-0.61
			c0.39-0.52,0.49-0.3,0.79-0.55c0.37-0.3,0.28-0.47,0.7-0.94c0.38-0.42,0.26-1.01,0.36-1.29c0.3-0.86,0.6-0.77,0.77-1.88
			c0.17-1.1-0.02-1.21-0.18-1.84c-0.12-0.46,0.09-0.91-0.26-1.45c-0.7-1.09-0.48-1.11-0.64-1.52c-0.47-1.22-0.91-1.2-0.91-1.9
			c0-0.45,0.1-1.13-0.2-1.1c-0.25,0.02-0.18,0.72-0.3,1.15c-0.13,0.45-0.56,1.16-0.81,1.5c-0.26,0.34-0.6,0.5-1.16,1.29
			c-0.5,0.72-0.25,0.98-0.42,1.33c-0.33,0.66-0.64,0.31-0.93,1.71c-0.23,1.09,0.35,1.2,0.33,1.79c-0.01,0.3-0.19,0.64-0.33,1.15
			C40.99,83.83,41,84.21,41.14,84.64z"/>
		<path class="st2" d="M25.52,90.07c-0.9,0-1.63,0.73-1.63,1.63c0,0.9,0.73,1.63,1.63,1.63c0.9,0,1.63-0.73,1.63-1.63
			C27.15,90.8,26.42,90.07,25.52,90.07z"/>
		<path class="st2" d="M15.45,82.24c-0.58,0-1.04,0.47-1.04,1.04c0,0.58,0.47,1.04,1.04,1.04c0.58,0,1.04-0.47,1.04-1.04
			C16.5,82.71,16.03,82.24,15.45,82.24z"/>
		<path class="st2" d="M14.89,87.45c-0.58,0-1.04,0.47-1.04,1.04c0,0.58,0.47,1.04,1.04,1.04c0.58,0,1.04-0.47,1.04-1.04
			C15.93,87.92,15.47,87.45,14.89,87.45z"/>
		<path class="st2" d="M24.81,95.18c-0.9,0-1.63,0.73-1.63,1.63c0,0.9,0.73,1.63,1.63,1.63c0.9,0,1.63-0.73,1.63-1.63
			C26.43,95.91,25.71,95.18,24.81,95.18z"/>
		<circle class="st2" cx="29.43" cy="97.12" r="1.63"/>
		<path class="st2" d="M5.11,82.42c-0.79,0.13-0.66,0.37-1.05,0.53c-0.21,0.09-0.35-0.12-0.79,0.16c-0.47,0.31-0.57,0.53-0.78,0.68
			c-0.2,0.14-0.59,0.28-0.86,0.33c-0.25,0.04-0.71,0-0.71,0.2c0,0.21,0.46,0.16,0.71,0.2c0.27,0.05,0.66,0.19,0.86,0.33
			c0.21,0.14,0.3,0.37,0.78,0.68c0.43,0.28,0.58,0.07,0.79,0.16c0.4,0.17,0.26,0.41,1.05,0.53c0.63,0.1,0.7-0.12,1.04-0.17
			c0.17-0.02,0.27,0.01,0.57,0.06c0.3,0.05,0.41-0.03,0.65-0.18c0.15-0.09,0.11-0.25,0.45-0.41c0.33-0.16,0.21-0.58,0.6-0.9
			c0.1-0.08,0.11-0.43-0.01-0.55c-0.27-0.26-0.25-0.8-0.58-0.96c-0.33-0.16-0.29-0.32-0.45-0.41c-0.24-0.14-0.35-0.23-0.65-0.18
			c-0.3,0.05-0.4,0.08-0.57,0.06C5.8,82.54,5.74,82.32,5.11,82.42z"/>
		<path class="st2" d="M36.47,91.88c-0.15,0-0.29-0.06-0.39-0.19c-0.03-0.04-3.16-3.89-7.09-5.07c-3.21-0.96-5.74-0.75-8.41-0.53
			c-2.88,0.24-5.85,0.49-9.88-0.7c-0.27-0.08-0.42-0.36-0.34-0.62c0.08-0.26,0.35-0.42,0.62-0.34c3.85,1.13,6.73,0.89,9.52,0.66
			c2.65-0.22,5.38-0.45,8.78,0.57c4.23,1.27,7.44,5.23,7.58,5.4c0.17,0.22,0.14,0.53-0.08,0.7C36.69,91.84,36.58,91.88,36.47,91.88z
			"/>
	</g>
	<g>
		<path class="st1" d="M76.8,92.68c0.21-1.12,1.2-1.97,2.38-1.97c1.34,0,2.43,1.09,2.43,2.43c0,1.34-1.09,2.43-2.43,2.43
			c-0.38,0-0.73-0.09-1.05-0.25c0.25,1.31,0.94,2.35,2.05,3.07c2.13,1.38,5.45,1.25,8.06-0.25c0.01-0.01,0.43-0.23,0.81-0.51
			c0.3-0.22,0.51-0.41,0.77-0.64c1.47-1.37,2.97-3.79,2.35-7.72c-0.06-0.37,0.19-0.71,0.56-0.77c0.37-0.06,0.71,0.19,0.77,0.56
			c0.36,2.31,0.06,4.43-0.82,6.24c1.33-0.72,2.6-1.35,3.48-1.76c3.98-1.84,7.23-1.76,9.41,0.24c0.27,0.25,0.29,0.68,0.04,0.95
			c-0.25,0.27-0.67,0.29-0.95,0.04c-1.77-1.62-4.44-1.62-7.93-0.01c-1.38,0.64-4.05,1.98-6.1,3.31c-0.44,0.38-0.78,0.67-1.23,0.96
			c-1.71,1.11-3.71,1.68-5.61,1.68c-1.58,0-3.1-0.39-4.34-1.19c-2.18-1.41-3.12-3.83-2.66-6.83C76.8,92.69,76.8,92.69,76.8,92.68z"
			/>
		<path class="st2" d="M99.81,81.21c-0.11,0.36-0.27,0.25-0.38,1.36c-0.05,0.55-0.43,0.74-0.6,1.11c-0.23,0.51-0.16,0.68-0.86,1.33
			c-0.7,0.66-0.86,0.44-1.52,0.86c-0.22,0.14-0.45,0.6-0.93,0.68c-0.53,0.09-0.56,0.25-0.97,0.26c-0.33,0.01-0.29-0.19-0.82-0.05
			c-0.53,0.14-0.38-0.39-1.28-0.37c-0.16,0-0.32-0.2-0.27-0.32c0.17-0.41-0.2-0.58,0.01-1.05c0.21-0.47,0.02-0.55,0.1-0.78
			c0.13-0.36,0.32-0.63,0.69-0.89c0.37-0.27,0.67-0.4,0.83-0.6c0.32-0.38-0.01-0.77,0.73-1.38c0.94-0.78,0.95-0.38,1.53-0.65
			c0.31-0.14,0.27-0.45,0.99-0.67c0.79-0.24,1.11-0.15,1.46-0.25c0.34-0.09,1.01-0.34,1.34-0.58c0.31-0.22,0.64-0.73,0.82-0.61
			c0.21,0.14-0.21,0.55-0.45,0.85C99.83,79.92,100.14,80.13,99.81,81.21z"/>
		<path class="st2" d="M87.71,86.91c0.42-0.1,0.43-0.23,0.76-0.27c0.26-0.03,0.24,0.14,0.66-0.01c0.41-0.15,0.32,0.29,1.04,0.22
			c0.13-0.01,0.27,0.14,0.24,0.24c-0.11,0.33,0.2,0.45,0.06,0.84c-0.14,0.39,0.02,0.44-0.03,0.63c-0.08,0.3-0.22,0.52-0.49,0.75
			c-0.27,0.23-0.51,0.36-0.62,0.53c-0.23,0.33,0.05,0.61-0.5,1.14c-0.7,0.68-0.73,0.36-1.18,0.61c-0.23,0.13-0.19,0.38-0.75,0.59
			c-0.62,0.24-0.87,0.19-1.15,0.29c-0.27,0.09-0.78,0.33-1.03,0.54c-0.24,0.19-0.46,0.62-0.61,0.54c-0.18-0.1,0.14-0.45,0.31-0.7
			c0.27-0.4,0.01-0.55,0.21-1.42c0.07-0.3,0.2-0.22,0.22-1.11c0.01-0.44,0.3-0.62,0.41-0.92c0.15-0.42,0.08-0.55,0.6-1.11
			c0.52-0.57,0.66-0.4,1.16-0.77C87.18,87.38,87.33,87,87.71,86.91z"/>
		<path class="st2" d="M109.49,88.18c-0.08-0.28-0.17-0.29-0.2-0.51c-0.02-0.18,0.09-0.17-0.02-0.45c-0.11-0.28,0.19-0.23,0.13-0.72
			c-0.01-0.09,0.09-0.19,0.16-0.17c0.23,0.07,0.3-0.14,0.57-0.06c0.27,0.09,0.3-0.02,0.43,0.01c0.2,0.05,0.36,0.14,0.52,0.32
			c0.17,0.18,0.26,0.34,0.37,0.42c0.23,0.15,0.41-0.05,0.79,0.32c0.48,0.46,0.26,0.49,0.44,0.79c0.09,0.16,0.26,0.12,0.42,0.5
			c0.17,0.42,0.15,0.59,0.22,0.78c0.07,0.18,0.24,0.53,0.39,0.69c0.14,0.16,0.43,0.3,0.38,0.41c-0.06,0.12-0.31-0.08-0.48-0.2
			c-0.28-0.18-0.37,0-0.97-0.12c-0.2-0.04-0.15-0.13-0.76-0.13c-0.3,0-0.43-0.19-0.64-0.26c-0.29-0.1-0.38-0.05-0.77-0.39
			c-0.4-0.34-0.29-0.44-0.55-0.77C109.83,88.53,109.57,88.43,109.49,88.18z"/>
		<path class="st2" d="M108.76,83.29c-0.08,0.22-0.15,0.22-0.19,0.39c-0.03,0.14,0.06,0.14-0.04,0.35c-0.1,0.21,0.14,0.19,0.05,0.57
			c-0.01,0.07,0.06,0.15,0.11,0.14c0.18-0.04,0.23,0.13,0.44,0.08c0.21-0.05,0.23,0.04,0.34,0.02c0.16-0.02,0.29-0.08,0.43-0.22
			c0.14-0.13,0.22-0.25,0.32-0.3c0.19-0.11,0.32,0.06,0.64-0.2c0.4-0.33,0.24-0.37,0.4-0.59c0.08-0.12,0.21-0.08,0.36-0.36
			c0.16-0.31,0.15-0.45,0.22-0.59c0.07-0.14,0.22-0.4,0.35-0.52c0.12-0.11,0.36-0.21,0.32-0.29c-0.04-0.1-0.25,0.05-0.39,0.12
			c-0.23,0.12-0.29-0.03-0.77,0.03c-0.16,0.02-0.13,0.09-0.6,0.05c-0.24-0.02-0.35,0.12-0.52,0.16c-0.23,0.06-0.3,0.01-0.63,0.25
			c-0.33,0.24-0.25,0.33-0.48,0.57C109.05,83.03,108.84,83.09,108.76,83.29z"/>
		<path class="st2" d="M125.97,87.52c-0.45-0.22-0.44-0.41-0.8-0.52c-0.29-0.08-0.3,0.16-0.75-0.12c-0.44-0.28-0.43,0.37-1.23,0.15
			c-0.14-0.04-0.34,0.16-0.32,0.31c0.06,0.51-0.32,0.63-0.25,1.22c0.07,0.59-0.11,0.65-0.1,0.93c0.03,0.45,0.14,0.8,0.4,1.19
			c0.26,0.39,0.5,0.62,0.6,0.88c0.2,0.52-0.19,0.89,0.32,1.76c0.65,1.12,0.76,0.66,1.21,1.1c0.24,0.23,0.13,0.59,0.72,1
			c0.65,0.45,0.95,0.42,1.24,0.61c0.28,0.18,0.82,0.62,1.05,0.96c0.23,0.33,0.39,0.99,0.58,0.89c0.22-0.12-0.06-0.68-0.2-1.08
			c-0.22-0.63,0.1-0.81,0.06-2.13c-0.01-0.45-0.18-0.35-0.01-1.67c0.08-0.65-0.21-0.96-0.27-1.43c-0.08-0.64,0.02-0.83-0.44-1.74
			c-0.47-0.92-0.66-0.7-1.15-1.33C126.48,88.3,126.38,87.72,125.97,87.52z"/>
		<path class="st2" d="M124.38,82.4c-0.32,0.15-0.31,0.28-0.57,0.35c-0.21,0.05-0.21-0.12-0.52,0.08c-0.31,0.19-0.29-0.27-0.86-0.12
			c-0.1,0.03-0.23-0.12-0.22-0.22c0.04-0.36-0.21-0.45-0.16-0.86c0.06-0.41-0.07-0.45-0.06-0.65c0.02-0.31,0.11-0.56,0.29-0.83
			c0.19-0.27,0.36-0.43,0.43-0.61c0.14-0.36-0.12-0.62,0.25-1.23c0.47-0.77,0.54-0.45,0.86-0.75c0.17-0.16,0.1-0.41,0.52-0.69
			c0.46-0.31,0.67-0.28,0.88-0.41c0.2-0.12,0.58-0.42,0.75-0.66c0.16-0.23,0.29-0.69,0.42-0.62c0.15,0.08-0.05,0.48-0.15,0.76
			c-0.16,0.44,0.06,0.57,0.02,1.49c-0.02,0.31-0.13,0.25-0.03,1.17c0.05,0.46-0.16,0.67-0.21,0.99c-0.07,0.45,0.01,0.58-0.33,1.21
			c-0.34,0.64-0.47,0.48-0.82,0.92C124.75,81.86,124.67,82.27,124.38,82.4z"/>
		<path class="st2" d="M92,84.64c-0.09,0.27-0.32,0.21-0.48,0.79c-0.15,0.58-0.7,0.33-0.63,1.18c0.01,0.12,0.08,0.52,0.25,0.86
			c0.25,0.49,0.66,0.89,0.66,0.89l-0.16,0.04c0,0-0.37-0.34-0.63-0.8c-0.24-0.42-0.36-0.97-0.51-1.09
			c-0.81-0.68-1.29-0.09-1.67-0.61c-0.39-0.52-0.49-0.3-0.79-0.55c-0.37-0.3-0.28-0.47-0.7-0.94c-0.38-0.42-0.26-1.01-0.36-1.29
			c-0.3-0.86-0.6-0.77-0.77-1.88c-0.17-1.1,0.02-1.21,0.18-1.84c0.12-0.46-0.09-0.91,0.26-1.45c0.7-1.09,0.48-1.11,0.64-1.52
			c0.47-1.22,0.91-1.2,0.91-1.9c0-0.45-0.1-1.13,0.2-1.1c0.25,0.02,0.18,0.72,0.3,1.15c0.13,0.45,0.56,1.16,0.81,1.5
			c0.26,0.34,0.6,0.5,1.16,1.29c0.5,0.72,0.25,0.98,0.42,1.33c0.33,0.66,0.64,0.31,0.93,1.71c0.23,1.09-0.35,1.2-0.33,1.79
			c0.01,0.3,0.19,0.64,0.33,1.15C92.16,83.83,92.14,84.21,92,84.64z"/>
		<path class="st2" d="M107.62,90.07c0.9,0,1.63,0.73,1.63,1.63c0,0.9-0.73,1.63-1.63,1.63c-0.9,0-1.63-0.73-1.63-1.63
			C105.99,90.8,106.72,90.07,107.62,90.07z"/>
		<path class="st2" d="M117.69,82.24c0.58,0,1.04,0.47,1.04,1.04c0,0.58-0.47,1.04-1.04,1.04c-0.58,0-1.04-0.47-1.04-1.04
			C116.65,82.71,117.11,82.24,117.69,82.24z"/>
		<path class="st2" d="M118.25,87.45c0.58,0,1.04,0.47,1.04,1.04c0,0.58-0.47,1.04-1.04,1.04c-0.58,0-1.04-0.47-1.04-1.04
			C117.21,87.92,117.68,87.45,118.25,87.45z"/>
		<path class="st2" d="M108.34,95.18c0.9,0,1.63,0.73,1.63,1.63c0,0.9-0.73,1.63-1.63,1.63c-0.9,0-1.63-0.73-1.63-1.63
			C106.71,95.91,107.44,95.18,108.34,95.18z"/>
		<circle class="st2" cx="103.71" cy="97.12" r="1.63"/>
		<path class="st2" d="M128.04,82.42c0.79,0.13,0.66,0.37,1.05,0.53c0.21,0.09,0.35-0.12,0.79,0.16c0.47,0.31,0.57,0.53,0.78,0.68
			c0.2,0.14,0.59,0.28,0.86,0.33c0.25,0.04,0.71,0,0.71,0.2c0,0.21-0.46,0.16-0.71,0.2c-0.27,0.05-0.66,0.19-0.86,0.33
			c-0.21,0.14-0.3,0.37-0.78,0.68c-0.43,0.28-0.58,0.07-0.79,0.16c-0.4,0.17-0.26,0.41-1.05,0.53c-0.63,0.1-0.7-0.12-1.04-0.17
			c-0.17-0.02-0.27,0.01-0.57,0.06c-0.3,0.05-0.41-0.03-0.65-0.18c-0.15-0.09-0.11-0.25-0.45-0.41c-0.33-0.16-0.21-0.58-0.6-0.9
			c-0.1-0.08-0.11-0.43,0.01-0.55c0.27-0.26,0.25-0.8,0.58-0.96c0.33-0.16,0.29-0.32,0.45-0.41c0.24-0.14,0.35-0.23,0.65-0.18
			c0.3,0.05,0.4,0.08,0.57,0.06C127.34,82.54,127.4,82.32,128.04,82.42z"/>
		<path class="st2" d="M96.67,91.88c-0.11,0-0.22-0.04-0.31-0.11c-0.22-0.17-0.25-0.49-0.08-0.7c0.14-0.17,3.35-4.13,7.58-5.4
			c3.39-1.02,6.13-0.79,8.78-0.57c2.79,0.23,5.67,0.47,9.52-0.66c0.27-0.08,0.54,0.07,0.62,0.34c0.08,0.26-0.07,0.54-0.34,0.62
			c-4.03,1.19-7,0.94-9.88,0.7c-2.67-0.22-5.2-0.43-8.41,0.53c-3.92,1.18-7.06,5.03-7.09,5.07C96.96,91.81,96.82,91.88,96.67,91.88z
			"/>
	</g>
</g>
</svg>
